<svg width="24" height="24" viewBox="0 0 24 24" fill="none" xmlns="http://www.w3.org/2000/svg">
<path d="M9.09644 3.3147C10.3496 2.34397 12.3345 2.23581 13.7234 3.02856L13.9929 3.19946L19.7537 7.22974C20.2227 7.5582 20.6665 8.09686 20.9939 8.72388C21.3213 9.35106 21.5095 10.0241 21.5095 10.5999V17.3801C21.5094 19.6538 19.664 21.5 17.3904 21.5002H6.61011C4.3378 21.5002 2.49022 19.6454 2.48999 17.3704V10.47L2.4978 10.2649C2.53449 9.77625 2.69782 9.2206 2.95874 8.69067C3.25678 8.0854 3.66124 7.55647 4.08765 7.22388L9.09644 3.3147ZM11.9998 13.7502C11.3137 13.7504 10.7498 14.3142 10.7498 15.0002V18.0002C10.7499 18.6862 11.3138 19.2501 11.9998 19.2502C12.6858 19.2502 13.2496 18.6862 13.2498 18.0002V15.0002C13.2498 14.3141 12.6859 13.7502 11.9998 13.7502Z" stroke="#7A5AF8"/>
</svg>
